<?xml version="1.0" encoding="UTF-8"?>
<svg version="1.1" xmlns="http://www.w3.org/2000/svg" width="512" height="512">
<path d="M0 0 C-0.2266333 1.00562988 -0.4532666 2.01125977 -0.68676758 3.04736328 C-7.00116601 30.82123402 -7.00116601 30.82123402 -11 59 C-11.0913623 59.89976563 -11.18272461 60.79953125 -11.27685547 61.7265625 C-14.68919336 98.27081576 -12.40926667 139.84454696 11 170 C13.33333333 172.66666667 13.33333333 172.66666667 16 175 C16.57363281 175.55429688 17.14726562 176.10859375 17.73828125 176.6796875 C28.21950077 186.46776024 39.51757345 189.62766594 53.515625 189.30859375 C59.23482752 189.02120263 63.92624166 187.65579538 69 185 C69.886875 184.53722656 70.77375 184.07445312 71.6875 183.59765625 C88.60730959 173.76782369 97.77980174 158.28109862 106 141 C109.87785282 144.65055417 112.89597872 148.42750863 115.8125 152.875 C116.460979 153.86282471 116.460979 153.86282471 117.12255859 154.87060547 C140.42113767 190.89465063 149.74762579 234.79447397 141 277 C137.74594001 291.42554089 132.60510476 304.78979047 126 318 C141.62180933 318.88425336 154.93855007 311.15522096 166.55078125 301.2890625 C169.50899078 298.52429251 172.13754901 295.59764635 174.66015625 292.43359375 C175.32337891 291.72396484 175.32337891 291.72396484 176 291 C176.66 291 177.32 291 178 291 C178.97919716 338.24751843 169.52142572 384.16899471 141 423 C140.54093262 423.63518555 140.08186523 424.27037109 139.60888672 424.92480469 C138.06207595 427.06180008 136.50270794 429.18894728 134.9375 431.3125 C134.45474609 431.97113037 133.97199219 432.62976074 133.47460938 433.30834961 C130.43998944 437.35502143 127.18013355 440.94415388 123.55541992 444.47045898 C121.8135895 446.18330902 120.24098789 447.9907155 118.6875 449.875 C104.83638838 465.79162826 86.56959134 478.27727559 68 488 C67.10120117 488.47066895 66.20240234 488.94133789 65.27636719 489.42626953 C39.35988757 502.79802237 10.29677878 511.95923683 -19.08984375 512.23828125 C-19.94335419 512.2480751 -20.79686462 512.25786896 -21.67623901 512.26795959 C-48.33235132 512.51074938 -72.51317586 510.35431267 -98 502 C-98.69319336 501.77618652 -99.38638672 501.55237305 -100.10058594 501.32177734 C-121.51714497 494.26895576 -141.02398333 482.89952149 -158.9375 469.375 C-159.63593018 468.8485791 -160.33436035 468.3221582 -161.05395508 467.77978516 C-165.16051529 464.61528631 -168.86767148 461.2539331 -172.48364258 457.54003906 C-174.19255815 455.80443458 -175.99626126 454.23641572 -177.875 452.6875 C-186.81083881 444.93737826 -194.04860121 435.51686046 -201 426 C-201.39799805 425.45843262 -201.79599609 424.91686523 -202.20605469 424.35888672 C-233.91484031 380.63919745 -246.44377263 324.36120947 -238.28540039 271.1262207 C-237.09639228 264.03728909 -235.68154321 256.98854129 -234 250 C-233.01 250 -232.02 250 -231 250 C-229.30859375 251.80078125 -229.30859375 251.80078125 -227.4375 254.3125 C-220.71312462 263.02334224 -213.47940793 270.98203401 -205 278 C-204.10667969 278.76957031 -203.21335938 279.53914063 -202.29296875 280.33203125 C-193.91393647 287.48111384 -185.15525931 293.8003617 -175.79980469 299.6315918 C-174.72940948 300.2991877 -174.72940948 300.2991877 -173.63739014 300.98027039 C-173.09705139 301.31678116 -172.55671265 301.65329193 -172 302 C-172.00999275 300.93481644 -172.00999275 300.93481644 -172.02018738 299.84811401 C-172.0814848 292.99978969 -172.12655537 286.1515086 -172.15543652 279.30297661 C-172.17078579 275.78600812 -172.19142249 272.26927458 -172.22631836 268.75244141 C-172.46604834 243.89388101 -171.02842767 219.42287116 -166.75 194.875 C-166.53947998 193.65312988 -166.32895996 192.43125977 -166.11206055 191.17236328 C-158.44821231 148.27797843 -143.67279519 106.82130696 -117 72 C-116.37738281 71.18402344 -115.75476563 70.36804688 -115.11328125 69.52734375 C-107.57838108 59.88328288 -99.43484156 50.81594808 -90 43 C-88.76636719 41.89978516 -88.76636719 41.89978516 -87.5078125 40.77734375 C-66.47464208 22.39516849 -28.94867463 -0.54340516 0 0 Z " fill="#FE6535" transform="translate(287,0)"/>
<path d="M0 0 C-0.2266333 1.00562988 -0.4532666 2.01125977 -0.68676758 3.04736328 C-7.00116601 30.82123402 -7.00116601 30.82123402 -11 59 C-11.13704346 60.34964844 -11.13704346 60.34964844 -11.27685547 61.7265625 C-14.68919336 98.27081576 -12.40926667 139.84454696 11 170 C13.33333333 172.66666667 13.33333333 172.66666667 16 175 C16.86044922 175.83144531 16.86044922 175.83144531 17.73828125 176.6796875 C28.21950077 186.46776024 39.51757345 189.62766594 53.515625 189.30859375 C59.23482752 189.02120263 63.92624166 187.65579538 69 185 C69.886875 184.53722656 70.77375 184.07445312 71.6875 183.59765625 C88.60730959 173.76782369 97.77980174 158.28109862 106 141 C109.87785282 144.65055417 112.89597872 148.42750863 115.8125 152.875 C116.460979 153.86282471 116.460979 153.86282471 117.12255859 154.87060547 C140.42113767 190.89465063 149.74762579 234.79447397 141 277 C137.74594001 291.42554089 132.60510476 304.78979047 126 318 C141.62180933 318.88425336 154.93855007 311.15522096 166.55078125 301.2890625 C169.50899078 298.52429251 172.13754901 295.59764635 174.66015625 292.43359375 C175.10230469 291.96050781 175.54445313 291.48742187 176 291 C176.66 291 177.32 291 178 291 C178.97919716 338.24751843 169.52142572 384.16899471 141 423 C140.54093262 423.63518555 140.08186523 424.27037109 139.60888672 424.92480469 C138.06207595 427.06180008 136.50270794 429.18894728 134.9375 431.3125 C134.45474609 431.97113037 133.97199219 432.62976074 133.47460938 433.30834961 C130.43998944 437.35502143 127.18013355 440.94415388 123.55541992 444.47045898 C121.8135895 446.18330902 120.24098789 447.9907155 118.6875 449.875 C104.83638838 465.79162826 86.56959134 478.27727559 68 488 C67.10120117 488.47066895 66.20240234 488.94133789 65.27636719 489.42626953 C41.07027472 501.91553854 12.14945438 512.4465202 -15.5 512.0625 C-16.3559375 512.05347656 -17.211875 512.04445313 -18.09375 512.03515625 C-18.7228125 512.02355469 -19.351875 512.01195312 -20 512 C-20 511.67 -20 511.34 -20 511 C-19.09121094 510.85304688 -18.18242187 510.70609375 -17.24609375 510.5546875 C6.78076585 506.26681717 28.67792136 494.25595505 43 474 C43.60457031 473.15953125 44.20914063 472.3190625 44.83203125 471.453125 C58.49159795 451.33576751 62.88312239 426.13304161 58.47460938 402.40771484 C54.45894442 383.10534282 44.84453917 366.90345211 31 353 C28.01657215 355.42837151 25.24280839 357.73802253 22.625 360.5625 C17.32169147 365.48700078 10.59860124 368.40719911 3.30859375 368.2734375 C-5.87598775 367.18558521 -13.07673984 361.96764655 -18.6875 354.86328125 C-22.16514141 349.88155992 -24.91050753 344.7019928 -27 339 C-27.30035156 338.18789063 -27.60070312 337.37578125 -27.91015625 336.5390625 C-33.30776928 319.01564904 -30.62246323 300.66344797 -22.9375 284.375 C-21.07677449 281.1337362 -19.14168774 278.05955391 -17 275 C-17.67546875 275.144375 -18.3509375 275.28875 -19.046875 275.4375 C-19.93890625 275.623125 -20.8309375 275.80875 -21.75 276 C-22.63171875 276.185625 -23.5134375 276.37125 -24.421875 276.5625 C-27 277 -27 277 -31 277 C-31 188.23 -31 99.46 -31 8 C-5.89473684 -0.36842105 -5.89473684 -0.36842105 0 0 Z " fill="#FE421D" transform="translate(287,0)"/>
<path d="M0 0 C-0.36351562 0.45246094 -0.72703125 0.90492188 -1.1015625 1.37109375 C-12.26492734 16.51319632 -15.07090334 36.00521807 -12.69970703 54.31933594 C-10.38955322 66.85008106 -4.51216066 78.43193019 5 87 C11.1023925 91.00538853 17.66809011 92.95353485 25 92 C29.84644941 90.39247491 34.01163374 88.19069301 38 85 C38.66 85 39.32 85 40 85 C40.3403125 84.13375 40.3403125 84.13375 40.6875 83.25 C42.33038023 80.4336339 44.39533227 78.91922886 47 77 C65.31111423 93.71884343 75.42434972 116.91970918 77.2578125 141.44921875 C78.06542587 166.35063102 68.97443031 188.78620208 53.25 207.75 C37.23229179 224.76080612 14.39285602 236.36864681 -9.1171875 237.23828125 C-36.6470084 237.77615983 -59.27976707 229.74431507 -79.63842773 210.80639648 C-94.67172954 196.3085598 -105.12667047 175.44129416 -106.17700195 154.46508789 C-106.24470044 150.33062524 -106.29881057 146.19749373 -106.3125 142.0625 C-106.31511841 141.30833801 -106.31773682 140.55417603 -106.32043457 139.77716064 C-106.32547233 126.18203949 -104.92456842 113.29634144 -102 100 C-101.70757406 98.53660985 -101.41585545 97.0730781 -101.125 95.609375 C-98.89898487 85.09454871 -94.67715139 75.62533771 -90 66 C-89.52820313 65.00355469 -89.05640625 64.00710938 -88.5703125 62.98046875 C-73.55759245 33.35477564 -45.35369865 11.92700343 -14.15625 1.7109375 C-3.82423393 -1.42709217 -3.82423393 -1.42709217 0 0 Z " fill="#FBBE00" transform="translate(271,275)"/>
<path d="M0 0 C-0.36351562 0.45246094 -0.72703125 0.90492188 -1.1015625 1.37109375 C-12.26492734 16.51319632 -15.07090334 36.00521807 -12.69970703 54.31933594 C-10.38955322 66.85008106 -4.51216066 78.43193019 5 87 C11.1023925 91.00538853 17.66809011 92.95353485 25 92 C29.84644941 90.39247491 34.01163374 88.19069301 38 85 C38.66 85 39.32 85 40 85 C40.226875 84.4225 40.45375 83.845 40.6875 83.25 C42.33038023 80.4336339 44.39533227 78.91922886 47 77 C65.31111423 93.71884343 75.42434972 116.91970918 77.2578125 141.44921875 C78.06542587 166.35063102 68.97443031 188.78620208 53.25 207.75 C38.49695748 223.41773116 17.58556906 234.84823813 -4 237 C-7.63 237 -11.26 237 -15 237 C-15 159.45 -15 81.9 -15 2 C-4 -1 -4 -1 0 0 Z " fill="#FEA800" transform="translate(271,275)"/>
</svg>
