<?xml version="1.0" encoding="UTF-8"?>
<svg version="1.1" xmlns="http://www.w3.org/2000/svg" width="512" height="512">
<path d="M0 0 C1.31863037 0.00491455 2.63726074 0.0098291 3.99584961 0.01489258 C25.64561415 0.2753469 46.82594968 5.70288738 63.03125 20.96875 C69.39739355 27.88847126 73.84292763 35.01931871 77.125 43.75 C79.55707833 49.84703848 81.86737516 52.09953255 87.6640625 54.98046875 C96.09651247 59.43165364 101.96361257 68.3847537 104.83203125 77.3203125 C106.40727559 86.14860495 105.30784818 95.01044496 100.74609375 102.76171875 C96.07087329 109.3243832 90.16175664 113.68213579 82.1875 115.3125 C75.23054275 115.99455463 69.59823065 114.07994943 64.19921875 109.69921875 C60.6048041 106.22795321 57.91208046 102.50870852 55.1875 98.3125 C34.14650004 103.45777185 14.33429047 111.46067538 2.30053711 130.55395508 C-6.46899646 145.50269113 -8.24250037 162.67678 -4.3125 179.4375 C3.14407457 207.53822352 25.05675819 230.69046025 47.1875 248.3125 C47.93128906 248.93511719 48.67507813 249.55773437 49.44140625 250.19921875 C110.85659486 301.14712304 194.15947116 332.18173242 271.66015625 347.62109375 C272.70413574 347.8329834 273.74811523 348.04487305 274.82373047 348.26318359 C276.79737998 348.65892417 278.77421479 349.03922831 280.75439453 349.40087891 C287.65240686 350.78448094 291.62212304 352.72471017 295.82118225 358.59727478 C297.41980214 361.77414418 297.57349634 363.87217548 297.59155273 367.41625977 C297.60423691 368.62423721 297.61692108 369.83221466 297.62998962 371.07679749 C297.62558617 373.02071632 297.62558617 373.02071632 297.62109375 375.00390625 C297.62565791 376.35481529 297.63096419 377.705722 297.63697815 379.05662537 C297.64589455 381.88184063 297.64350195 384.70677297 297.63354492 387.53198242 C297.62203716 391.14928817 297.64230009 394.76562032 297.67146206 398.38279819 C297.68981863 401.17012205 297.68953316 403.95721209 297.68382454 406.74458122 C297.68359702 408.72546921 297.70049209 410.70633523 297.71763611 412.68714905 C297.70825516 413.89197433 297.69887421 415.09679962 297.68920898 416.33813477 C297.68895973 417.92767723 297.68895973 417.92767723 297.68870544 419.54933167 C297.04646558 423.09002914 295.98165304 424.08871428 293.1875 426.3125 C290.48167449 426.81504732 290.48167449 426.81504732 287.31467915 426.81865788 C285.50230148 426.83522941 285.50230148 426.83522941 283.65331012 426.85213572 C282.31064467 426.84417797 280.96798143 426.83584026 279.62532043 426.8271637 C278.20012288 426.83248741 276.77493094 426.83955209 275.34974974 426.84821075 C271.42778319 426.86689305 267.5061928 426.86051372 263.58421028 426.85005772 C259.35537196 426.84308016 255.12661206 426.85905398 250.89779663 426.87205505 C242.60539901 426.89373595 234.31313843 426.89355581 226.02072177 426.88542951 C219.27044562 426.87912984 212.52020943 426.88026632 205.7699337 426.88670158 C204.80909266 426.88760324 203.84825162 426.88850489 202.85829419 426.88943387 C200.90609059 426.89128515 198.95388701 426.89314771 197.00168344 426.89502143 C178.67245227 426.91161877 160.34329793 426.90286937 142.01407137 426.88603585 C125.29254315 426.87138739 108.57119541 426.88589514 91.84969047 426.91480602 C74.65628485 426.94430925 57.46296218 426.95513742 40.26953238 426.94562382 C38.31808739 426.94460136 36.36664239 426.94360674 34.41519737 426.9426403 C33.45522064 426.94216391 32.49524391 426.94168752 31.50617698 426.9411967 C24.78470813 426.93904419 18.06331872 426.94877605 11.34186745 426.96341133 C3.11907412 426.98106564 -5.10349063 426.98063429 -13.32627549 426.95805968 C-17.51171591 426.9470261 -21.69675572 426.94350131 -25.88217735 426.96236038 C-65.87031838 427.12910466 -105.74084189 419.41661497 -136.8125 392.3125 C-137.72128906 391.52875 -138.63007813 390.745 -139.56640625 389.9375 C-152.35329444 378.65607257 -152.35329444 378.65607257 -155.875 373 C-159.975344 369.24862145 -163.64465521 369.42950681 -169.05078125 368.84765625 C-183.10973903 366.84757607 -194.63225328 358.74997734 -203.73828125 348.15625 C-212.24668942 336.49123842 -215.1170866 324.7976941 -215.0871582 310.55688477 C-215.0948246 308.66488594 -215.0948246 308.66488594 -215.10264587 306.73466492 C-215.11597211 303.29192842 -215.11662096 299.84930216 -215.11408257 296.40654492 C-215.11300705 293.51730035 -215.11791178 290.62807754 -215.122688 287.73883766 C-215.13376435 280.90798762 -215.13423323 274.07719256 -215.12817383 267.24633789 C-215.12215539 260.24253135 -215.13439487 253.23892678 -215.1557439 246.23515469 C-215.17348164 240.18975422 -215.17934169 234.14441728 -215.17610615 228.09899181 C-215.17431005 224.50302225 -215.17675772 220.90719627 -215.19082069 217.31125069 C-215.37295627 166.34004812 -196.41229005 124.35097199 -162.8125 86.3125 C-162.06613281 85.45527344 -161.31976563 84.59804687 -160.55078125 83.71484375 C-152.26882641 74.33259329 -143.45307431 65.3040287 -133.8125 57.3125 C-132.96945313 56.60673828 -132.96945313 56.60673828 -132.109375 55.88671875 C-123.65515504 48.82435207 -115.14769595 42.18977886 -105.8125 36.3125 C-104.62566724 35.54003702 -103.43950345 34.76654551 -102.25390625 33.9921875 C-79.49191488 19.26693001 -54.69664921 7.0772657 -27.8125 2.3125 C-26.86979248 2.13807373 -25.92708496 1.96364746 -24.95581055 1.78393555 C-16.60471278 0.35233696 -8.46431413 -0.0373832 0 0 Z " fill="#B0ECFE" transform="translate(214.8125,42.6875)"/>
<path d="M0 0 C1.31863037 0.00491455 2.63726074 0.0098291 3.99584961 0.01489258 C25.64561415 0.2753469 46.82594968 5.70288738 63.03125 20.96875 C69.39739355 27.88847126 73.84292763 35.01931871 77.125 43.75 C79.55707833 49.84703848 81.86737516 52.09953255 87.6640625 54.98046875 C96.09651247 59.43165364 101.96361257 68.3847537 104.83203125 77.3203125 C106.40727559 86.14860495 105.30784818 95.01044496 100.74609375 102.76171875 C96.07087329 109.3243832 90.16175664 113.68213579 82.1875 115.3125 C75.29437536 115.98829653 69.85430723 114.07841063 64.375 109.9453125 C60.55402048 106.38967878 57.7523203 102.26094109 54.875 97.9375 C44.45287772 82.40171959 26.8221544 71.21011322 8.5 67.5625 C-26.51989729 61.09265861 -58.63639598 70.41489097 -87.8125 90.3125 C-92.60596996 93.82100105 -97.22993095 97.53461706 -101.8125 101.3125 C-102.60914062 101.96476562 -103.40578125 102.61703125 -104.2265625 103.2890625 C-108.90603689 107.24583814 -112.88200561 111.6215603 -116.8125 116.3125 C-117.95724279 117.64676974 -119.10300829 118.98016302 -120.25 120.3125 C-121.095625 121.3025 -121.94125 122.2925 -122.8125 123.3125 C-121.79671875 123.33828125 -120.7809375 123.3640625 -119.734375 123.390625 C-107.59580842 123.83323859 -95.83644589 125.33193847 -86.8125 134.3125 C-82.68980128 138.97396048 -82.23344865 143.63701287 -82.5 149.734375 C-83.23918572 155.83265721 -86.24876543 159.0681294 -90.703125 162.91796875 C-97.127186 167.16498685 -102.44792377 167.80233722 -110 167.6875 C-111.393396 167.67771118 -111.393396 167.67771118 -112.81494141 167.66772461 C-118.87822018 167.54975993 -124.43019036 166.90598333 -130.2421875 165.06640625 C-142.93491676 161.34346287 -158.86045148 161.6379369 -170.8125 167.3125 C-172.11574219 167.93125 -172.11574219 167.93125 -173.4453125 168.5625 C-185.41427845 175.00451226 -191.58247617 185.00912151 -195.921875 197.5078125 C-199.69880599 213.64259663 -196.71233458 230.1612824 -188.65625 244.37890625 C-184.67247474 250.79060482 -184.67247474 250.79060482 -178.8125 255.3125 C-178.544375 254.72984375 -178.27625 254.1471875 -178 253.546875 C-170.62735435 239.67466016 -154.29681813 230.55904738 -139.765625 225.95703125 C-113.01858505 218.24629163 -82.17458301 220.07337964 -57.62890625 233.6015625 C-56.23478516 234.44847656 -56.23478516 234.44847656 -54.8125 235.3125 C-54.01714844 235.79460937 -53.22179687 236.27671875 -52.40234375 236.7734375 C-46.54830771 240.73448618 -42.07259124 245.96619598 -40.08203125 252.83203125 C-39.29017786 257.93595754 -39.67347051 262.07233594 -42.33203125 266.5546875 C-46.71862547 271.76304476 -52.27293264 273.49542141 -58.875 274.125 C-60.51990233 274.20848613 -62.16582841 274.2786432 -63.8125 274.3125 C-63.4825 275.116875 -63.1525 275.92125 -62.8125 276.75 C-60.68756365 284.32008574 -61.48077257 291.20733884 -64.8125 298.3125 C-68.35132681 304.60752845 -72.88442346 309.00666689 -79.8125 311.3125 C-85.39098382 312.20917329 -90.78769997 312.35191353 -95.8125 309.5 C-99.89334209 306.54054633 -103.44551725 302.93620245 -107.10498047 299.48120117 C-116.16284532 291.1027471 -127.84183496 284.46729269 -140.51953125 284.9609375 C-148.75849587 286.22415184 -155.60237965 290.09921705 -160.625 296.69140625 C-169.3681818 309.49652459 -170.76423627 323.65708147 -168.12109375 338.72265625 C-166.35749628 347.31179465 -163.45927395 355.30238398 -159.984375 363.3359375 C-158.8125 366.3125 -158.8125 366.3125 -158.8125 369.3125 C-172.26213438 370.40547255 -183.96525098 365.46975413 -194.40625 357.27734375 C-205.03776469 348.19892684 -211.93383364 337.11346288 -214.8125 323.3125 C-214.90640985 321.52173171 -214.94731297 319.72786674 -214.95294189 317.93464661 C-214.95865204 316.84304733 -214.96436218 315.75144806 -214.97024536 314.62677002 C-214.97136322 313.4335614 -214.97248108 312.24035278 -214.97363281 311.01098633 C-214.97859772 309.75023788 -214.98356262 308.48948944 -214.98867798 307.1905365 C-215.00178629 303.73106507 -215.00824561 300.27161305 -215.01268864 296.81212068 C-215.0156261 294.64371817 -215.01973249 292.47532088 -215.02419281 290.30692101 C-215.03787287 283.50295373 -215.04753312 276.69899847 -215.0513947 269.8950184 C-215.05585599 262.07945189 -215.07331126 254.26406197 -215.1023953 246.44854909 C-215.12415871 240.38625361 -215.13410697 234.32400721 -215.13543582 228.26167315 C-215.13647482 224.65221685 -215.14218449 221.04292637 -215.16025543 217.43351173 C-215.40096364 166.40452915 -196.45147012 124.39532793 -162.8125 86.3125 C-162.06613281 85.45527344 -161.31976563 84.59804687 -160.55078125 83.71484375 C-152.26882641 74.33259329 -143.45307431 65.3040287 -133.8125 57.3125 C-132.96945313 56.60673828 -132.96945313 56.60673828 -132.109375 55.88671875 C-123.65515504 48.82435207 -115.14769595 42.18977886 -105.8125 36.3125 C-104.62566724 35.54003702 -103.43950345 34.76654551 -102.25390625 33.9921875 C-79.49191488 19.26693001 -54.69664921 7.0772657 -27.8125 2.3125 C-26.86979248 2.13807373 -25.92708496 1.96364746 -24.95581055 1.78393555 C-16.60471278 0.35233696 -8.46431413 -0.0373832 0 0 Z " fill="#E4F8FE" transform="translate(214.8125,42.6875)"/>
<path d="M0 0 C5.14129727 3.42753151 9.58229929 7.49784744 13.97241211 11.82421875 C18.85679705 16.57217697 23.35284117 19.42479616 30.375 19.5 C36.47903572 19.31090348 40.8913918 17.9958787 45.5625 14 C49.40622448 9.50325566 52.08561581 4.75984835 53.5625 -1 C59.76010479 4.25449102 59.76010479 4.25449102 62.65625 6.9453125 C114.242968 54.82202681 183.31963865 82.87491629 250.5625 100 C251.45807617 100.22929199 252.35365234 100.45858398 253.27636719 100.69482422 C275.46782144 106.28713842 298.32547082 109.75460604 321 112.75 C321.78173584 112.85328613 322.56347168 112.95657227 323.36889648 113.06298828 C326.09753584 113.40319247 328.82865649 113.70423513 331.5625 114 C332.58046158 114.11568329 332.58046158 114.11568329 333.61898804 114.23370361 C344.47888513 115.45259634 355.29029697 116.18460166 366.21484375 116.4921875 C367.38162155 116.52558228 368.54839935 116.55897705 369.75053406 116.59338379 C374.56417752 116.72592409 379.37775423 116.85110506 384.19213867 116.95361328 C387.76288051 117.03288399 391.33232199 117.13577498 394.90234375 117.2421875 C395.98668198 117.25901581 397.0710202 117.27584412 398.18821716 117.29318237 C404.22598075 117.49158666 407.98213123 117.92227866 412.5625 122 C414.10836876 125.09173752 413.85609521 127.59429552 413.5625 131 C411.4824197 133.76289327 410.28860953 134.86514119 406.85667449 135.50254732 C405.2890118 135.50433455 405.2890118 135.50433455 403.68967915 135.50615788 C402.48142737 135.51720556 401.27317559 135.52825325 400.02831012 135.53963572 C398.68564467 135.53167797 397.34298143 135.52334026 396.00032043 135.5146637 C394.57512288 135.51998741 393.14993094 135.52705209 391.72474974 135.53571075 C387.80278319 135.55439305 383.8811928 135.54801372 379.95921028 135.53755772 C375.73037196 135.53058016 371.50161206 135.54655398 367.27279663 135.55955505 C358.98039901 135.58123595 350.68813843 135.58105581 342.39572177 135.57292951 C335.64544562 135.56662984 328.89520943 135.56776632 322.1449337 135.57420158 C321.18409266 135.57510324 320.22325162 135.57600489 319.23329419 135.57693387 C317.28109059 135.57878515 315.32888701 135.58064771 313.37668344 135.58252143 C295.04745227 135.59911877 276.71829793 135.59036937 258.38907137 135.57353585 C241.66754315 135.55888739 224.94619541 135.57339514 208.22469047 135.60230602 C191.03128485 135.63180925 173.83796218 135.64263742 156.64453238 135.63312382 C154.69308739 135.63210136 152.74164239 135.63110674 150.79019737 135.6301403 C149.83022064 135.62966391 148.87024391 135.62918752 147.88117698 135.6286967 C141.15970813 135.62654419 134.43831872 135.63627605 127.71686745 135.65091133 C119.49407412 135.66856564 111.27150937 135.66813429 103.04872451 135.64555968 C98.86328409 135.6345261 94.67824428 135.63100131 90.49282265 135.64986038 C50.50468162 135.81660466 10.63415811 128.10411497 -20.4375 101 C-21.80068359 99.824375 -21.80068359 99.824375 -23.19140625 98.625 C-41.77416878 82.23007389 -41.77416878 82.23007389 -45.5 71.5625 C-45.87451294 70.52838989 -45.87451294 70.52838989 -46.2565918 69.47338867 C-48.74823966 62.43121764 -50.71172737 55.2659453 -52.4375 48 C-52.63085938 47.20980469 -52.82421875 46.41960937 -53.0234375 45.60546875 C-55.23634344 31.68086252 -53.7205523 17.8990088 -45.75 6.0625 C-33.27191985 -9.87784075 -16.55296558 -9.85467674 0 0 Z " fill="#00AAF0" transform="translate(98.4375,334)"/>
<path d="M0 0 C-1.47962821 3.65460083 -3.44518414 5.38884057 -6.5625 7.75 C-7.46226562 8.45382813 -8.36203125 9.15765625 -9.2890625 9.8828125 C-10.18367187 10.58148438 -11.07828125 11.28015625 -12 12 C-33.725238 29.24580749 -47.17989657 55.79944871 -51 83 C-53.50338017 111.9314695 -39.14125033 136.98444332 -21.19921875 158.49609375 C-17.96642678 162.17676809 -14.53208059 165.60888937 -11 169 C-6 174 -6 174 -4.1875 175.91796875 C1.81639966 182.15363659 8.35746353 187.39942052 15.22119141 192.63574219 C16.91295285 193.93323916 18.58948018 195.24779323 20.26171875 196.5703125 C40.01065493 212.12548258 61.87044542 225.15031711 84 237 C84.90637207 237.48936035 85.81274414 237.9787207 86.74658203 238.48291016 C119.38151448 256.04462762 153.77087686 270.79578507 189.08276367 282.11035156 C190.56740112 282.59906738 190.56740112 282.59906738 192.08203125 283.09765625 C192.94030518 283.37101807 193.7985791 283.64437988 194.68286133 283.92602539 C197.45814589 285.21234683 199.05872096 286.64506422 201 289 C201.5625 292.4375 201.5625 292.4375 201 296 C198.875 298.9375 198.875 298.9375 196 301 C191.34278444 301.43699864 187.82338988 300.48587073 183.4609375 298.90234375 C182.83507248 298.67700455 182.20920746 298.45166534 181.56437683 298.21949768 C179.4969281 297.47011371 177.43579857 296.70496859 175.375 295.9375 C174.65802948 295.67356445 173.94105896 295.40962891 173.20236206 295.13769531 C98.98094867 267.78828845 12.4673684 230.62672323 -37 166 C-37.66 165.2059375 -38.32 164.411875 -39 163.59375 C-46.37751266 154.71768008 -52.70541183 144.96563298 -57.9296875 134.671875 C-59.04871028 132.67742602 -59.04871028 132.67742602 -62 131 C-65.22243543 130.5042407 -66.5588385 130.71384119 -69.3125 132.5 C-71.62560301 135.92681928 -71.48799169 139.0230275 -71 143 C-70.00117204 145.56432622 -69.04493062 147.65391117 -67.6875 150 C-67.33212158 150.63663574 -66.97674316 151.27327148 -66.6105957 151.92919922 C-59.3647852 164.6236981 -50.67183341 176.07787014 -41 187 C-40.20464844 187.9178125 -39.40929687 188.835625 -38.58984375 189.78125 C-34.03491814 194.96902119 -29.29606682 199.58358811 -24 204 C-23.0203125 204.84433594 -22.040625 205.68867188 -21.03125 206.55859375 C-14.68798731 212.01579211 -8.22236841 217.19441231 -1.4609375 222.125 C2.48555297 225.13184988 2.48555297 225.13184988 4 227 C4.38732567 230.5504853 4.39304549 233.06651697 3 236.375 C0.58312423 238.33871157 -1.56312023 238.96220493 -4.64599609 239.28613281 C-9.72808882 238.66839659 -13.48030029 234.83651722 -17.3125 231.6875 C-18.23804688 230.95362061 -19.16359375 230.21974121 -20.1171875 229.46362305 C-27.55868001 223.51160649 -34.72005035 217.33526403 -41.41796875 210.55078125 C-43.18587525 208.8042715 -45.01630714 207.11947479 -46.89453125 205.4921875 C-54.68319121 198.50637468 -54.68319121 198.50637468 -55.60546875 194.12109375 C-55.5 191.3125 -55.5 191.3125 -55.19921875 188.58203125 C-54.87813272 184.4205045 -56.20280759 181.72751018 -58 178 C-58.52980469 177.4740625 -59.05960938 176.948125 -59.60546875 176.40625 C-61 175 -61 175 -61 173 C-61.55945313 172.73832031 -62.11890625 172.47664062 -62.6953125 172.20703125 C-65.23752324 170.87560223 -67.50809035 169.30980434 -69.875 167.6875 C-76.26499567 163.60805906 -82.78074058 161.2201328 -90 159 C-91.14339844 158.60554687 -92.28679687 158.21109375 -93.46484375 157.8046875 C-117.18262403 150.56532233 -146.81038118 153.43957379 -168.8125 164.8125 C-177.79035806 170.03404356 -188.23570873 177.47141746 -193 187 C-201.1406737 183.79087028 -205.59248957 173.43483081 -208.9921875 165.8984375 C-213.5038233 152.92311284 -214.48867293 136.42408067 -209.2578125 123.56640625 C-201.88985352 108.53302411 -192.49598712 100.35334736 -176.625 94.82421875 C-172.35590634 93.85355198 -168.42496081 93.65837511 -164.0625 93.6875 C-163.24072266 93.68951416 -162.41894531 93.69152832 -161.57226562 93.69360352 C-152.55815829 93.83846071 -143.57415587 95.14194804 -135 98 C-124.58544906 98.95214619 -112.49871152 100.0182908 -104 93 C-99.53220372 88.79501527 -97.8487134 84.91299224 -97.625 78.8125 C-97.70185283 72.99474114 -99.01414618 69.25739618 -103 65 C-112.98003532 56.52471501 -125.57852581 56.41789182 -138 56 C-135.93907796 52.27196268 -133.67958854 49.46076159 -130.625 46.5 C-129.82578125 45.71882813 -129.0265625 44.93765625 -128.203125 44.1328125 C-127.47609375 43.42898437 -126.7490625 42.72515625 -126 42 C-125.13375 41.13375 -124.2675 40.2675 -123.375 39.375 C-122.199375 38.199375 -122.199375 38.199375 -121 37 C-120.34257812 36.27296875 -120.34257812 36.27296875 -119.671875 35.53125 C-101.33531955 15.89817042 -74.84617243 3.64587082 -49 -2 C-47.71802734 -2.33837891 -47.71802734 -2.33837891 -46.41015625 -2.68359375 C-31.31689724 -6.42465795 -14.79999659 -3.90871705 0 0 Z " fill="#01C3FE" transform="translate(229,111)"/>
<path d="M0 0 C4.01684613 2.99307529 8.01901463 6.00186686 11.97265625 9.078125 C21.06068671 16.13948718 30.27313989 22.84465961 40 29 C40.56799316 29.35980957 41.13598633 29.71961914 41.72119141 30.09033203 C85.74028682 57.7173266 133.80522134 76.21663878 184 89 C184.89557617 89.22929199 185.79115234 89.45858398 186.71386719 89.69482422 C208.90532144 95.28713842 231.76297082 98.75460604 254.4375 101.75 C255.21923584 101.85328613 256.00097168 101.95657227 256.80639648 102.06298828 C259.53506521 102.40319613 262.26604953 102.70492283 265 103 C265.67664703 103.07579285 266.35329407 103.15158569 267.05044556 103.22967529 C282.78030872 104.96788163 298.50171091 105.60779013 314.3125 106.125 C316.81837944 106.21166146 319.32423906 106.29889767 321.83007812 106.38671875 C327.88650717 106.59775021 333.94313913 106.80177 340 107 C340 107.33 340 107.66 340 108 C307.40523234 108.0916448 274.81050243 108.1622406 242.21563494 108.20426132 C238.35005524 108.20926295 234.4844758 108.21444036 230.61889648 108.21972656 C229.46475416 108.22130043 229.46475416 108.22130043 228.28729583 108.22290608 C215.89893394 108.24021686 203.51064783 108.27170182 191.1223306 108.30861118 C178.3699957 108.34628254 165.61769992 108.36829053 152.86531168 108.37635398 C145.71966005 108.38130578 138.5741666 108.39312491 131.4285717 108.42292023 C70.87487377 108.66776725 12.38586244 104.95495016 -37 66 C-37.53608887 65.57895996 -38.07217773 65.15791992 -38.62451172 64.72412109 C-40.2595477 63.4320321 -41.88173906 62.12551787 -43.5 60.8125 C-44.4590625 60.03519531 -45.418125 59.25789063 -46.40625 58.45703125 C-50.88489984 54.21445482 -53.70508158 50.00816787 -54.3125 43.8125 C-53.81082693 37.69208851 -51.58085958 33.06478744 -46.875 29.0625 C-42.68637904 26.05761975 -40.06587217 25.73678511 -34.9375 25.1875 C-21.98674068 23.59346571 -12.84366592 17.90229744 -4.4765625 7.96875 C-2.56471383 5.41961844 -1.24429331 2.92774898 0 0 Z " fill="#00C2FE" transform="translate(165,345)"/>
<path d="M0 0 C0.85231201 0.35070557 1.70462402 0.70141113 2.58276367 1.06274414 C14.08743642 6.08397093 23.71757727 14.33720608 29.1484375 25.765625 C32.19905212 33.57257425 31.65332447 42.36451819 28.97265625 50.20703125 C25.35961649 58.16600495 19.91563778 63.29578953 11.875 66.625 C5.38453251 68.52315559 0.07588174 67.87543193 -5.9375 64.9296875 C-11.99574005 61.31638004 -15.59050472 56.03046784 -19.4375 50.25 C-29.85962228 34.71421959 -47.4903456 23.52261322 -65.8125 19.875 C-100.83239729 13.40515861 -132.94889598 22.72739097 -162.125 42.625 C-166.91846996 46.13350105 -171.54243095 49.84711706 -176.125 53.625 C-176.92164063 54.27726562 -177.71828125 54.92953125 -178.5390625 55.6015625 C-181.84257508 58.39488009 -184.82923585 61.31390022 -187.6875 64.5625 C-188.27144531 65.22507812 -188.85539062 65.88765625 -189.45703125 66.5703125 C-191.16388654 68.57805109 -191.16388654 68.57805109 -192.44921875 70.8046875 C-195.24158133 74.98175591 -197.73877055 76.71932121 -202.6171875 77.79296875 C-209.0558541 78.93529283 -215.5732574 79.83893445 -222.125 79.625 C-219.21359283 74.98909026 -215.95519129 71.0855444 -212.1875 67.125 C-209.19500127 63.95558625 -206.23176312 60.79853613 -203.47265625 57.421875 C-201.56514351 55.14936399 -199.7619139 53.2682319 -197.5 51.375 C-194.28727705 48.64597697 -191.1987833 45.8220564 -188.125 42.9375 C-138.35993086 -2.24754217 -64.23650305 -26.85114314 0 0 Z " fill="#D0F3FE" transform="translate(289.125,90.375)"/>
<path d="M0 0 C0.82902832 0.00346436 1.65805664 0.00692871 2.51220703 0.01049805 C10.60105129 0.15044077 18.19718811 1.47748648 26.0625 3.3125 C27.72974121 3.69607666 27.72974121 3.69607666 29.43066406 4.08740234 C32.64187373 4.82654546 35.85240153 5.56854827 39.0625 6.3125 C39.05202637 7.05185791 39.04155273 7.79121582 39.03076172 8.55297852 C38.73593851 28.52328713 38.73593851 28.52328713 41.0625 48.3125 C41.41964435 50.28118228 41.77638946 52.24993701 42.1328125 54.21875 C42.44243824 55.91671594 42.75224254 57.61464938 43.0625 59.3125 C42.32314209 59.40748779 41.58378418 59.50247559 40.82202148 59.6003418 C13.48910032 63.18307009 -9.98752572 68.72271513 -27.9375 91.3125 C-28.2675 91.9725 -28.5975 92.6325 -28.9375 93.3125 C-37.0781737 90.10337028 -41.52998957 79.74733081 -44.9296875 72.2109375 C-49.4413233 59.23561284 -50.42617293 42.73658067 -45.1953125 29.87890625 C-37.82735352 14.84552411 -28.43348712 6.66584736 -12.5625 1.13671875 C-8.29365093 0.16610759 -4.36229192 -0.02998908 0 0 Z " fill="#00AAF0" transform="translate(64.9375,204.6875)"/>
<path d="M0 0 C3.72118228 2.79401901 6.77701292 5.61584643 9.7578125 9.1796875 C12.99145748 12.61303502 15.81534083 12.88680589 20.4453125 13.2421875 C22.46557415 13.29457309 24.48698374 13.32595938 26.5078125 13.3046875 C26.5078125 13.6346875 26.5078125 13.9646875 26.5078125 14.3046875 C22.8778125 14.6346875 19.2478125 14.9646875 15.5078125 15.3046875 C16.0028125 16.51125 16.0028125 16.51125 16.5078125 17.7421875 C18.63274885 25.31227324 17.83953993 32.19952634 14.5078125 39.3046875 C10.96898569 45.59971595 6.43588904 49.99885439 -0.4921875 52.3046875 C-6.07067132 53.20136079 -11.46738747 53.34410103 -16.4921875 50.4921875 C-20.57302959 47.53273383 -24.12520475 43.92838995 -27.78466797 40.47338867 C-36.84253282 32.0949346 -48.52152246 25.45948019 -61.19921875 25.953125 C-69.43818337 27.21633934 -76.28206715 31.09140455 -81.3046875 37.68359375 C-90.04649141 50.48669406 -91.53789383 64.79449727 -88.73046875 79.85546875 C-87.15503789 87.22669859 -84.9950135 94.32196991 -82.12890625 101.30078125 C-81.4921875 103.3046875 -81.4921875 103.3046875 -82.4921875 105.3046875 C-96.39583737 83.5223027 -104.81681648 60.0644592 -100.4921875 33.8671875 C-97.18186758 19.10996693 -89.50795662 5.72337572 -76.9921875 -3.0703125 C-53.98565583 -17.18523834 -22.09151201 -15.02776836 0 0 Z " fill="#D0F3FE" transform="translate(135.4921875,301.6953125)"/>
<path d="M0 0 C4.40676323 3.69066421 7.1041458 7.06616687 7.83984375 12.8671875 C8.02496134 18.33185867 7.78260838 22.6342045 4.5 27.1875 C-0.8369931 32.78651602 -6.53597342 36.23326385 -14.35546875 36.5859375 C-16.13278851 36.59803375 -17.91034453 36.58952351 -19.6875 36.5625 C-21.080896 36.55271118 -21.080896 36.55271118 -22.50244141 36.54272461 C-28.56572018 36.42475993 -34.11769036 35.78098333 -39.9296875 33.94140625 C-46.20392484 32.10109044 -52.51865023 32.00511955 -59 32 C-59.81597656 31.98775391 -60.63195313 31.97550781 -61.47265625 31.96289062 C-66.52094335 31.95073584 -70.65045507 32.63541135 -75.5 34.1875 C-77.24662312 34.46009436 -78.99672386 34.7116178 -80.75 34.9375 C-92.31938086 37.01080902 -102.11050938 44.37240219 -109.31640625 53.484375 C-118.04633618 66.17449871 -122.05089765 79.97192528 -123.5 95.1875 C-123.83 95.1875 -124.16 95.1875 -124.5 95.1875 C-124.57473903 90.36779078 -124.62887722 85.54842665 -124.66479492 80.72827148 C-124.67978456 79.09214391 -124.70018332 77.45605585 -124.72631836 75.82006836 C-124.99011276 58.86998493 -124.99011276 58.86998493 -121.5 51.1875 C-121.11199219 50.07503906 -120.72398438 48.96257812 -120.32421875 47.81640625 C-113.12169235 28.38691063 -99.71976951 12.43010437 -80.7265625 3.55859375 C-57.73380751 -6.21193531 -22.26503121 -15.0723351 0 0 Z " fill="#FDFEFE" transform="translate(124.5,173.8125)"/>
<path d="M0 0 C0.33 0 0.66 0 1 0 C1.09498779 0.6077124 1.18997559 1.2154248 1.2878418 1.84155273 C7.41596986 40.45421484 21.34949272 73.55596428 47.87890625 102.66015625 C50.65217289 105.71943197 53.32986479 108.85060975 56 112 C42.55036562 113.09297255 30.84724902 108.15725413 20.40625 99.96484375 C9.82598768 90.93019204 2.77231192 79.77988491 0 66 C-0.08735207 63.83052964 -0.11766895 61.65852896 -0.11352539 59.48730469 C-0.11367142 58.84298492 -0.11381744 58.19866516 -0.1139679 57.53482056 C-0.1132735 55.41380397 -0.10550336 53.29287617 -0.09765625 51.171875 C-0.09579039 49.69785612 -0.09436728 48.22383662 -0.09336853 46.74981689 C-0.08955661 42.87661008 -0.07973765 39.00344097 -0.06866455 35.13024902 C-0.05842193 31.17537954 -0.0538648 27.22050394 -0.04882812 23.265625 C-0.03811418 15.51039951 -0.02105369 7.75520504 0 0 Z " fill="#FEFEFF" transform="translate(0,300)"/>
<path d="M0 0 C0 0.66 0 1.32 0 2 C-1.87091901 3.25834392 -3.80043063 4.42982766 -5.75 5.5625 C-17.6060061 12.63378984 -28.39918863 21.12580019 -38 31.0625 C-40 33 -40 33 -42 33 C-42.24363281 33.55558594 -42.48726562 34.11117187 -42.73828125 34.68359375 C-44.25558378 37.46922966 -46.12512684 39.65225667 -48.1875 42.0625 C-51.45419942 45.94072555 -54.11670678 49.78518945 -56.625 54.1875 C-58.3046875 56.93359375 -58.3046875 56.93359375 -60 59 C-64.12399227 59.82479845 -66.07655009 59.30781664 -70 58 C-71.33363703 57.85596652 -72.67218046 57.75409577 -74.01171875 57.68359375 C-75.14770508 57.62075195 -75.14770508 57.62075195 -76.30664062 57.55664062 C-77.09232422 57.51732422 -77.87800781 57.47800781 -78.6875 57.4375 C-79.88342773 57.37272461 -79.88342773 57.37272461 -81.10351562 57.30664062 C-83.06881447 57.20072632 -85.03438496 57.09987449 -87 57 C-84.93907796 53.27196268 -82.67958854 50.46076159 -79.625 47.5 C-78.42617187 46.32824219 -78.42617187 46.32824219 -77.203125 45.1328125 C-76.47609375 44.42898437 -75.7490625 43.72515625 -75 43 C-73.700625 41.700625 -73.700625 41.700625 -72.375 40.375 C-71.59125 39.59125 -70.8075 38.8075 -70 38 C-69.56171875 37.5153125 -69.1234375 37.030625 -68.671875 36.53125 C-53.37107305 20.14857316 -23.18064594 0 0 0 Z " fill="#02ABF0" transform="translate(178,110)"/>
<path d="M0 0 C2.86269841 1.17015409 4.48414435 2.23968988 6.140625 4.875 C6.76550768 8.54618573 6.3710141 10.39327734 4.765625 13.75 C1.37312877 16.49630647 -0.64896973 16.5233284 -4.921875 16.30078125 C-18.4494901 14.33999661 -18.4494901 14.33999661 -22.73828125 9.953125 C-24.52957235 6.63268297 -23.87139011 4.4170529 -22.859375 0.875 C-17.3615069 -6.21902335 -7.33525368 -2.39895089 0 0 Z " fill="#5AD8FF" transform="translate(470.859375,408.125)"/>
<path d="M0 0 C3.32421875 1.390625 3.32421875 1.390625 6.6875 3.25 C7.80511719 3.85328125 8.92273438 4.4565625 10.07421875 5.078125 C12.83606447 6.89231471 14.40462279 8.13621334 16 11 C16 15.21079371 15.6203953 17.27012317 12.875 20.5 C9.99698639 22.00157232 8.3613414 22.4867587 5.171875 21.81640625 C-0.82118094 19.56362083 -7.41292638 16.38061043 -11 11 C-11.4375 8.125 -11.4375 8.125 -11 5 C-7.63021598 0.44088044 -5.56363815 -0.57716873 0 0 Z " fill="#5BD8FF" transform="translate(254,350)"/>
</svg>
